<svg xmlns="http://www.w3.org/2000/svg" viewBox="0 0 1440 2500" width="1440" height="2500">
  <defs>
    <style>
      .wireframe-bg { fill: #f8f9fa; }
      .wireframe-outline { fill: none; stroke: #adb5bd; stroke-width: 1; }
      .wireframe-text { fill: #495057; font-family: Arial, sans-serif; }
      .wireframe-title { font-size: 24px; font-weight: bold; }
      .wireframe-subtitle { font-size: 18px; font-weight: 600; }
      .wireframe-body { font-size: 14px; }
      .wireframe-small { font-size: 12px; }
      .wireframe-placeholder { fill: #e9ecef; stroke: #adb5bd; stroke-dasharray: 5,5; }
      .wireframe-accent { fill: #5F6F52; }
      .wireframe-accent-light { fill: #A9B388; }
      .wireframe-cta { fill: #B99470; }
      .wireframe-nav { fill: rgba(10, 10, 10, 0.8); }
      .wireframe-footer { fill: #0A0A0A; }
      .wireframe-text-light { fill: #FEFAE0; }
      .wireframe-scroll-indicator { fill: #adb5bd; }
    </style>
  </defs>

  <!-- Loading Screen -->
  <rect class="wireframe-bg" width="1440" height="2500"/>
  <rect class="wireframe-outline" x="240" y="400" width="960" height="400" rx="8"/>
  <circle class="wireframe-placeholder" cx="720" cy="500" r="60"/>
  <rect class="wireframe-text" x="600" y="600" width="240" height="30" rx="4"/>
  <text class="wireframe-title" x="720" y="620" text-anchor="middle">NexaFlow ...</text>
  <rect class="wireframe-placeholder" x="480" y="680" width="480" height="20" rx="4"/>
  <rect class="wireframe-accent" x="480" y="680" width="480" height="20" rx="4"/>
  <text class="wireframe-body" x="720" y="730" text-anchor="middle">100%</text>

  <!-- Navbar -->
  <rect class="wireframe-nav" x="0" y="0" width="1440" height="80" rx="0"/>
  <circle class="wireframe-accent-light" cx="80" cy="40" r="20"/>
  <text class="wireframe-text-light wireframe-subtitle" x="120" y="48">NexaFlow</text>
  <rect class="wireframe-text-light wireframe-small" x="300" y="25" width="60" height="30" rx="4"/>
  <text class="wireframe-text-light wireframe-small" x="330" y="44">Home</text>
  <rect class="wireframe-text-light wireframe-small" x="380" y="25" width="60" height="30" rx="4"/>
  <text class="wireframe-text-light wireframe-small" x="410" y="44">About</text>
  <rect class="wireframe-text-light wireframe-small" x="460" y="25" width="80" height="30" rx="4"/>
  <text class="wireframe-text-light wireframe-small" x="500" y="44">Services</text>
  <rect class="wireframe-text-light wireframe-small" x="560" y="25" width="100" height="30" rx="4"/>
  <text class="wireframe-text-light wireframe-small" x="610" y="44">Case Studies</text>
  <rect class="wireframe-text-light wireframe-small" x="680" y="25" width="50" height="30" rx="4"/>
  <text class="wireframe-text-light wireframe-small" x="705" y="44">Blog</text>
  <rect class="wireframe-text-light wireframe-small" x="750" y="25" width="80" height="30" rx="4"/>
  <text class="wireframe-text-light wireframe-small" x="790" y="44">Contact</text>
  <rect class="wireframe-cta" x="1200" y="25" width="120" height="30" rx="4"/>
  <text class="wireframe-text-light wireframe-small" x="1260" y="44">Get Started</text>

  <!-- Hero Section -->
  <rect class="wireframe-accent" x="0" y="80" width="1440" height="700"/>
  <rect class="wireframe-outline" x="100" y="120" width="1240" height="60" rx="4"/>
  <text class="wireframe-text-light wireframe-subtitle" x="120" y="155">GET IN TOUCH</text>
  <rect class="wireframe-outline" x="100" y="200" width="1240" height="120" rx="4"/>
  <text class="wireframe-text-light wireframe-title" x="720" y="260" text-anchor="middle">LET'S CREATE</text>
  <text class="wireframe-text-light wireframe-title" x="720" y="290" text-anchor="middle">SOMETHING EXTRAORDINARY</text>
  <rect class="wireframe-outline" x="100" y="340" width="1240" height="80" rx="4"/>
  <text class="wireframe-text-light wireframe-body" x="720" y="380" text-anchor="middle">Have a vision? Let's bring it to life. Our team of experts is ready</text>
  <text class="wireframe-text-light wireframe-body" x="720" y="400" text-anchor="middle">to transform your ideas into reality.</text>
  <rect class="wireframe-cta" x="620" y="440" width="200" height="50" rx="4"/>
  <text class="wireframe-text-light wireframe-subtitle" x="720" y="470" text-anchor="middle">START A PROJECT</text>
  <path class="wireframe-scroll-indicator" d="M720,520 L720,560 M700,540 L720,560 L740,540" stroke-width="2"/>

  <!-- Animated Grid Background (simplified) -->
  <g opacity="0.3">
    <line class="wireframe-text-light" x1="200" y1="100" x2="200" y2="780" stroke-width="0.5"/>
    <line class="wireframe-text-light" x1="400" y1="100" x2="400" y2="780" stroke-width="0.5"/>
    <line class="wireframe-text-light" x1="600" y1="100" x2="600" y2="780" stroke-width="0.5"/>
    <line class="wireframe-text-light" x1="800" y1="100" x2="800" y2="780" stroke-width="0.5"/>
    <line class="wireframe-text-light" x1="1000" y1="100" x2="1000" y2="780" stroke-width="0.5"/>
    <line class="wireframe-text-light" x1="1200" y1="100" x2="1200" y2="780" stroke-width="0.5"/>
    <line class="wireframe-text-light" x1="100" y1="200" x2="1340" y2="200" stroke-width="0.5"/>
    <line class="wireframe-text-light" x1="100" y1="400" x2="1340" y2="400" stroke-width="0.5"/>
    <line class="wireframe-text-light" x1="100" y1="600" x2="1340" y2="600" stroke-width="0.5"/>
  </g>
  <circle class="wireframe-accent-light" cx="300" cy="300" r="15" opacity="0.7"/>
  <circle class="wireframe-accent-light" cx="1100" cy="500" r="20" opacity="0.7"/>
  <circle class="wireframe-accent-light" cx="900" cy="200" r="10" opacity="0.7"/>

  <!-- Contact Form Section -->
  <rect class="wireframe-bg" x="0" y="800" width="1440" height="800"/>
  <rect class="wireframe-outline" x="100" y="840" width="500" height="60" rx="4"/>
  <text class="wireframe-subtitle" x="120" y="875">SAY HELLO</text>
  <rect class="wireframe-outline" x="100" y="920" width="500" height="120" rx="4"/>
  <text class="wireframe-body" x="120" y="950">We'd love to hear from you. Whether you have a</text>
  <text class="wireframe-body" x="120" y="970">question about our services, pricing, or anything</text>
  <text class="wireframe-body" x="120" y="990">else, our team is ready to answer all your questions.</text>

  <rect class="wireframe-outline" x="640" y="840" width="700" height="600" rx="8"/>
  <rect class="wireframe-placeholder" x="680" y="880" width="300" height="40" rx="4"/>
  <text class="wireframe-body" x="690" y="905">Name *</text>
  <rect class="wireframe-placeholder" x="1000" y="880" width="300" height="40" rx="4"/>
  <text class="wireframe-body" x="1010" y="905">Email *</text>
  <rect class="wireframe-placeholder" x="680" y="940" width="300" height="40" rx="4"/>
  <text class="wireframe-body" x="690" y="965">Company</text>
  <rect class="wireframe-placeholder" x="1000" y="940" width="300" height="40" rx="4"/>
  <text class="wireframe-body" x="1010" y="965">Service</text>
  <rect class="wireframe-placeholder" x="680" y="1000" width="620" height="120" rx="4"/>
  <text class="wireframe-body" x="690" y="1025">Message *</text>
  <rect class="wireframe-cta" x="680" y="1140" width="160" height="40" rx="4"/>
  <text class="wireframe-text-light wireframe-small" x="760" y="1165" text-anchor="middle">SEND MESSAGE</text>

  <!-- Contact Info -->
  <rect class="wireframe-outline" x="100" y="1060" width="200" height="80" rx="4"/>
  <text class="wireframe-body" x="120" y="1085">📧 Email</text>
  <text class="wireframe-small" x="120" y="1105">contact@nexaflow.ai</text>

  <rect class="wireframe-outline" x="320" y="1060" width="200" height="80" rx="4"/>
  <text class="wireframe-body" x="340" y="1085">📍 Lahore</text>
  <text class="wireframe-small" x="340" y="1105">123 Tech Street, Lahore, PK</text>

  <rect class="wireframe-outline" x="100" y="1160" width="200" height="80" rx="4"/>
  <text class="wireframe-body" x="120" y="1185">⏱ 24hrs</text>
  <text class="wireframe-small" x="120" y="1205">Response Time</text>

  <!-- Map Section -->
  <rect class="wireframe-outline" x="100" y="1620" width="1240" height="200" rx="8"/>
  <rect class="wireframe-placeholder" x="120" y="1640" width="200" height="30" rx="4"/>
  <text class="wireframe-body" x="130" y="1660">📍 Lahore, Pakistan</text>
  <rect class="wireframe-placeholder" x="120" y="1680" width="1200" height="120" rx="4"/>

  <!-- Footer -->
  <rect class="wireframe-footer" x="0" y="1840" width="1440" height="400"/>
  <rect class="wireframe-outline" x="100" y="1880" width="200" height="120" rx="4"/>
  <circle class="wireframe-accent-light" cx="140" cy="1920" r="20"/>
  <text class="wireframe-text-light wireframe-subtitle" x="180" cy="1928">NEXAFLOW</text>
  <text class="wireframe-text-light wireframe-small" x="120" y="1960">Innovative AI solutions</text>
  <text class="wireframe-text-light wireframe-small" x="120" y="1980">for modern businesses.</text>

  <rect class="wireframe-outline" x="320" y="1880" width="200" height="160" rx="4"/>
  <text class="wireframe-text-light wireframe-subtitle" x="340" y="1910">Company</text>
  <text class="wireframe-text-light wireframe-small" x="340" y="1940">About</text>
  <text class="wireframe-text-light wireframe-small" x="340" y="1960">Careers</text>
  <text class="wireframe-text-light wireframe-small" x="340" y="1980">Blog</text>
  <text class="wireframe-text-light wireframe-small" x="340" y="2000">Press</text>

  <rect class="wireframe-outline" x="540" y="1880" width="200" height="160" rx="4"/>
  <text class="wireframe-text-light wireframe-subtitle" x="560" y="1910">Services</text>
  <text class="wireframe-text-light wireframe-small" x="560" y="1940">AI Solutions</text>
  <text class="wireframe-text-light wireframe-small" x="560" y="1960">Automation</text>
  <text class="wireframe-text-light wireframe-small" x="560" y="1980">Machine Learning</text>
  <text class="wireframe-text-light wireframe-small" x="560" y="2000">Analytics</text>

  <rect class="wireframe-outline" x="760" y="1880" width="200" height="160" rx="4"/>
  <text class="wireframe-text-light wireframe-subtitle" x="780" y="1910">Resources</text>
  <text class="wireframe-text-light wireframe-small" x="780" y="1940">Documentation</text>
  <text class="wireframe-text-light wireframe-small" x="780" y="1960">Tutorials</text>
  <text class="wireframe-text-light wireframe-small" x="780" y="1980">Community</text>
  <text class="wireframe-text-light wireframe-small" x="780" y="2000">Support</text>

  <rect class="wireframe-outline" x="980" y="1880" width="200" height="160" rx="4"/>
  <text class="wireframe-text-light wireframe-subtitle" x="1000" y="1910">Legal</text>
  <text class="wireframe-text-light wireframe-small" x="1000" y="1940">Privacy Policy</text>
  <text class="wireframe-text-light wireframe-small" x="1000" y="1960">Terms of Service</text>
  <text class="wireframe-text-light wireframe-small" x="1000" y="1980">Cookie Policy</text>
  <text class="wireframe-text-light wireframe-small" x="1000" y="2000">Security</text>

  <!-- Social Icons -->
  <circle class="wireframe-text-light" cx="140" cy="2040" r="15"/>
  <text class="wireframe-text-light" x="140" y="2045" text-anchor="middle" font-size="10">T</text>
  <circle class="wireframe-text-light" cx="180" cy="2040" r="15"/>
  <text class="wireframe-text-light" x="180" y="2045" text-anchor="middle" font-size="10">in</text>
  <circle class="wireframe-text-light" cx="220" cy="2040" r="15"/>
  <text class="wireframe-text-light" x="220" y="2045" text-anchor="middle" font-size="10">GH</text>
  <circle class="wireframe-text-light" cx="260" cy="2040" r="15"/>
  <text class="wireframe-text-light" x="260" y="2045" text-anchor="middle" font-size="10">YT</text>

  <!-- Copyright -->
  <text class="wireframe-text-light wireframe-small" x="720" y="2100" text-anchor="middle">© 2026 NexaFlow AI. All rights reserved</text>
  <text class="wireframe-text-light wireframe-small" x="720" y="2120" text-anchor="middle">Powered by Innovation • Driven by Excellence</text>

  <!-- Responsive Breakpoint Indicators -->
  <line class="wireframe-scroll-indicator" x1="1024" y1="0" x2="1024" y2="2500" stroke-dasharray="5,5"/>
  <text class="wireframe-small" x="1030" y="20" fill="#adb5bd">1024px (Desktop)</text>
  <line class="wireframe-scroll-indicator" x1="768" y1="0" x2="768" y2="2500" stroke-dasharray="5,5"/>
  <text class="wireframe-small" x="774" y="20" fill="#adb5bd">768px (Tablet)</text>
</svg>